<svg id="ahs_negre" xmlns="http://www.w3.org/2000/svg" width="418.555" height="152.095" viewBox="0 0 418.555 152.095">
  <g id="Group_1" data-name="Group 1" transform="translate(0.51)">
    <path id="Path_1" data-name="Path 1" d="M68.4,79.224H88.548L60.121.88h-30.9L.57,79.224H20.716L26.2,63.555h36.62l5.569,15.669ZM31.926,47.215l10.5-29.995H46.35L57.014,47.215Z" transform="translate(-0.57 -0.092)" fill="#fff"/>
    <path id="Path_2" data-name="Path 2" d="M143.51.88V31.322H113.954V.88H94.48V25.762l19.4,53.462h.072V47.663H143.51V79.224h19.474V.88Z" transform="translate(-10.397 -0.092)" fill="#fff"/>
    <path id="Path_3" data-name="Path 3" d="M227.941,36.477c-1.012-.439-2.032-.851-3.089-1.227q-4.808-1.679-9.4-3.134-3.358-1.115-6.16-2.355a15.108,15.108,0,0,1-4.423-2.8,5.356,5.356,0,0,1-1.621-4.029,5.962,5.962,0,0,1,1.4-3.922,8.863,8.863,0,0,1,3.635-2.57,13.1,13.1,0,0,1,4.924-.9,13.587,13.587,0,0,1,4.307.725,9.486,9.486,0,0,1,3.752,2.292c.116.116.206.242.3.358L214.725.063C213.973.027,213.212,0,212.433,0a39.407,39.407,0,0,0-14.89,2.632,23.426,23.426,0,0,0-10.3,7.781,20.514,20.514,0,0,0-3.805,12.535,19.037,19.037,0,0,0,2.238,10.073,19.068,19.068,0,0,0,6.267,6.545,40.719,40.719,0,0,0,8.506,4.146q4.593,1.625,9.07,2.856c2.686.824,5.05,1.621,7.109,2.409a14.091,14.091,0,0,1,4.817,2.856,5.955,5.955,0,0,1,1.737,4.477,6.784,6.784,0,0,1-2.856,5.65q-2.861,2.189-8.112,2.185a17.341,17.341,0,0,1-5.542-.842,9.661,9.661,0,0,1-4.253-2.8,10.287,10.287,0,0,1-2.292-5.2L182,58.879a23.582,23.582,0,0,0,5.6,11.532,26.594,26.594,0,0,0,10.914,7.109,44.125,44.125,0,0,0,15.051,2.409q9.965,0,16.457-3.134a22.654,22.654,0,0,0,9.6-8.184L227.959,36.486Z" transform="translate(-19.555)" fill="#fff"/>
  </g>
  <g id="Group_2" data-name="Group 2" transform="translate(0 92.258)">
    <path id="Path_4" data-name="Path 4" d="M26.807,136.042a16.3,16.3,0,0,0,6.035-3.393,13.562,13.562,0,0,0,3.6-5.318,19.36,19.36,0,0,0,1.173-6.867,18.761,18.761,0,0,0-1.925-8.631,13.681,13.681,0,0,0-6.16-5.945Q25.3,103.71,18.265,103.71H0v58.646H3.187V137.223H18.435c.3,0,.582-.018.877-.027l15.624,25.16h3.6l-15.857-25.4a23.11,23.11,0,0,0,4.128-.9ZM3.179,134.367V106.548H18.265q8.8,0,12.481,3.814a13.937,13.937,0,0,1,3.689,10.1,15.227,15.227,0,0,1-1.674,7.208,11.455,11.455,0,0,1-5.193,4.942,20.455,20.455,0,0,1-9.133,1.764H3.187Z" transform="translate(0 -103.11)" fill="#fff"/>
    <path id="Path_5" data-name="Path 5" d="M55.95,162.346H92.9V159.5H59.137v-25.8H84.521v-2.847H59.137v-24.3H92.9V103.7H55.95Z" transform="translate(-5.855 -103.109)" fill="#fff"/>
    <path id="Path_6" data-name="Path 6" d="M112.56,162.346h3.188V133.695h25.383v-2.847H115.747v-24.3h33.764V103.7H112.56Z" transform="translate(-11.778 -103.109)" fill="#fff"/>
    <path id="Path_7" data-name="Path 7" d="M209.176,111.386a26.68,26.68,0,0,0-9.007-6.16,28.992,28.992,0,0,0-11.308-2.176,29.441,29.441,0,0,0-11.4,2.176,27,27,0,0,0-9.052,6.16,27.554,27.554,0,0,0-5.945,9.464,36.018,36.018,0,0,0,0,24.211,27.469,27.469,0,0,0,5.945,9.464,27,27,0,0,0,9.052,6.16,29.217,29.217,0,0,0,11.4,2.176,28.77,28.77,0,0,0,11.308-2.176,26.426,26.426,0,0,0,9.007-6.16,28.382,28.382,0,0,0,5.945-9.464,35.31,35.31,0,0,0,0-24.211,28.524,28.524,0,0,0-5.945-9.464Zm1.424,36.029a24.1,24.1,0,0,1-9.052,9.339,24.945,24.945,0,0,1-12.7,3.268,25.48,25.48,0,0,1-12.822-3.268,23.737,23.737,0,0,1-9.052-9.339,29.415,29.415,0,0,1-3.349-14.451,29.619,29.619,0,0,1,3.349-14.5,23.756,23.756,0,0,1,9.052-9.3,25.315,25.315,0,0,1,12.822-3.268,24.8,24.8,0,0,1,12.7,3.268,24.129,24.129,0,0,1,9.052,9.3,29.1,29.1,0,0,1,3.393,14.5,28.99,28.99,0,0,1-3.393,14.451Z" transform="translate(-16.781 -103.041)" fill="#fff"/>
    <path id="Path_8" data-name="Path 8" d="M263.637,136.042a16.294,16.294,0,0,0,6.035-3.393,13.563,13.563,0,0,0,3.6-5.318,19.359,19.359,0,0,0,1.173-6.867,18.76,18.76,0,0,0-1.925-8.631,13.681,13.681,0,0,0-6.16-5.945q-4.231-2.176-11.264-2.176H236.83v58.646h3.188V137.223h15.248c.3,0,.582-.018.878-.027l15.624,25.16h3.6l-15.857-25.4a23.109,23.109,0,0,0,4.128-.9Zm-23.629-1.674V106.548h15.078q8.8,0,12.481,3.814a13.937,13.937,0,0,1,3.689,10.1,15.228,15.228,0,0,1-1.674,7.208,11.455,11.455,0,0,1-5.193,4.942,20.455,20.455,0,0,1-9.133,1.764H240.009Z" transform="translate(-24.782 -103.11)" fill="#fff"/>
    <path id="Path_9" data-name="Path 9" d="M319.927,157.986,296.209,103.7H292.78v58.646h3.179V110.567l22.626,51.779h2.6L343.8,110.567v51.779h3.188V103.7h-3.349Z" transform="translate(-30.636 -103.109)" fill="#fff"/>
    <path id="Path_10" data-name="Path 10" d="M385.075,103.7,362.96,162.346h3.188l6.438-17.012H404.5l6.384,17.012h3.268L392.041,103.7h-6.957Zm-11.425,38.787,13.6-35.94h2.677l13.493,35.94Z" transform="translate(-37.98 -103.109)" fill="#fff"/>
    <path id="Path_11" data-name="Path 11" d="M461.764,140.959a12.689,12.689,0,0,0-3.814-4.522,25.817,25.817,0,0,0-5.614-3.1,67.653,67.653,0,0,0-6.617-2.3q-4.271-1.262-7.834-2.641a14.492,14.492,0,0,1-5.659-3.725,9.351,9.351,0,0,1-2.1-6.456,11,11,0,0,1,1.97-6.706,12.64,12.64,0,0,1,5.318-4.235,18,18,0,0,1,7.288-1.468A16.553,16.553,0,0,1,452,107.275a14.368,14.368,0,0,1,4.817,3.6,11.664,11.664,0,0,1,2.391,4.146l2.847-1.092a15.082,15.082,0,0,0-3.1-5.318,16.029,16.029,0,0,0-5.694-4.02,23.91,23.91,0,0,0-17.97.421,14.631,14.631,0,0,0-8.416,13.7,11.54,11.54,0,0,0,5.444,10.431,27.035,27.035,0,0,0,5.659,2.767c2.1.752,4.289,1.442,6.581,2.05a56.211,56.211,0,0,1,7.79,2.892,14.962,14.962,0,0,1,5.569,4.235,10.607,10.607,0,0,1,2.05,6.787,11.257,11.257,0,0,1-3.725,8.631q-3.734,3.438-11.264,3.438a18.958,18.958,0,0,1-8.631-1.674,13.334,13.334,0,0,1-4.987-4.146,16.162,16.162,0,0,1-2.391-4.9L426.12,150.4a16.945,16.945,0,0,0,3.223,6.285,15.724,15.724,0,0,0,6.2,4.522,24.24,24.24,0,0,0,9.589,1.674c4.36,0,7.843-.716,10.476-2.14a13.426,13.426,0,0,0,5.739-5.614,16.248,16.248,0,0,0,1.8-7.584,14.406,14.406,0,0,0-1.379-6.581Z" transform="translate(-44.589 -103.04)" fill="#fff"/>
  </g>
</svg>
