<svg xmlns="http://www.w3.org/2000/svg" width="38.687" height="38.687" viewBox="0 0 38.687 38.687">
  <g id="Group_80" data-name="Group 80" transform="translate(0.5 0.5)">
    <path id="Path_80" data-name="Path 80" d="M38.187,5.139a1.639,1.639,0,0,1-1.639,1.639H2.139a1.639,1.639,0,1,1,0-3.277h34.41A1.639,1.639,0,0,1,38.187,5.139Z" transform="translate(-0.5 1.416)" fill="none" stroke="#fff" stroke-linecap="round" stroke-linejoin="round" stroke-width="1"/>
    <path id="Path_81" data-name="Path 81" d="M38.187,14.139a1.639,1.639,0,0,1-1.639,1.639H2.139a1.639,1.639,0,1,1,0-3.277h34.41A1.639,1.639,0,0,1,38.187,14.139Z" transform="translate(-0.5 7.163)" fill="none" stroke="#fff" stroke-linecap="round" stroke-linejoin="round" stroke-width="1"/>
    <line id="Line_23" data-name="Line 23" y2="7" transform="translate(15.242 25.723)" fill="none" stroke="#fff" stroke-linecap="round" stroke-linejoin="round" stroke-width="1"/>
    <path id="Path_82" data-name="Path 82" d="M12.374,21.729a3.687,3.687,0,0,1-7.374,0A1.245,1.245,0,0,1,6.229,20.5h6.145Z" transform="translate(2.374 12.271)" fill="none" stroke="#fff" stroke-linecap="round" stroke-linejoin="round" stroke-width="1"/>
    <line id="Line_24" data-name="Line 24" y2="5" transform="translate(33.242 25.723)" fill="none" stroke="#fff" stroke-linecap="round" stroke-linejoin="round" stroke-width="1"/>
    <ellipse id="Ellipse_6" data-name="Ellipse 6" cx="2.458" cy="3.277" rx="2.458" ry="3.277" transform="translate(30.313 31.133)" fill="none" stroke="#fff" stroke-linecap="round" stroke-linejoin="round" stroke-width="1"/>
    <line id="Line_25" data-name="Line 25" y2="5" transform="translate(23.242 25.723)" fill="none" stroke="#fff" stroke-linecap="round" stroke-linejoin="round" stroke-width="1"/>
    <ellipse id="Ellipse_7" data-name="Ellipse 7" cx="2.458" cy="3.277" rx="2.458" ry="3.277" transform="translate(20.482 31.133)" fill="none" stroke="#fff" stroke-linecap="round" stroke-linejoin="round" stroke-width="1"/>
    <path id="Path_83" data-name="Path 83" d="M16.539.5a4.916,4.916,0,0,1-4.916,4.916H9.166A4.916,4.916,0,0,1,4.25.5Z" transform="translate(1.895 -0.5)" fill="none" stroke="#fff" stroke-linecap="round" stroke-linejoin="round" stroke-width="1"/>
    <path id="Path_84" data-name="Path 84" d="M14.289,9.5a4.916,4.916,0,0,1-4.916,4.916H6.916A4.916,4.916,0,0,1,2,9.5Z" transform="translate(0.458 5.247)" fill="none" stroke="#fff" stroke-linecap="round" stroke-linejoin="round" stroke-width="1"/>
    <rect id="Rectangle_45" data-name="Rectangle 45" width="8" height="8" transform="translate(21.242 11.723)" fill="none" stroke="#fff" stroke-linecap="round" stroke-linejoin="round" stroke-width="1"/>
    <path id="Path_85" data-name="Path 85" d="M18.5,8.5h1.442a1.835,1.835,0,0,1,.442,3.621L18.5,12.6" transform="translate(10.994 4.608)" fill="none" stroke="#fff" stroke-linecap="round" stroke-linejoin="round" stroke-width="1"/>
  </g>
</svg>
