<svg id="ahs_negre" xmlns="http://www.w3.org/2000/svg" width="190.961" height="69.392" viewBox="0 0 190.961 69.392">
  <g id="Group_1" data-name="Group 1" transform="translate(0.233)">
    <path id="Path_1" data-name="Path 1" d="M31.518,36.624h9.191L27.739.88h-14.1L.57,36.624H9.761l2.5-7.149H28.973l2.541,7.149ZM14.876,22.02,19.667,8.335h1.789L26.322,22.02Z" transform="translate(-0.57 -0.521)"/>
    <path id="Path_2" data-name="Path 2" d="M116.849.88V14.769H103.365V.88H94.48V12.232l8.852,24.391h.033v-14.4h13.485v14.4h8.885V.88Z" transform="translate(-56.118 -0.521)"/>
    <path id="Path_3" data-name="Path 3" d="M202.96,16.642c-.462-.2-.927-.388-1.409-.56q-2.194-.766-4.289-1.43-1.532-.509-2.81-1.074a6.893,6.893,0,0,1-2.018-1.279,2.444,2.444,0,0,1-.739-1.838,2.72,2.72,0,0,1,.637-1.789A4.043,4.043,0,0,1,193.989,7.5a5.975,5.975,0,0,1,2.247-.408,6.2,6.2,0,0,1,1.965.331,4.328,4.328,0,0,1,1.712,1.046c.053.053.094.11.139.163l-3.121-8.6C196.588.012,196.24,0,195.885,0a17.979,17.979,0,0,0-6.793,1.2,10.688,10.688,0,0,0-4.7,3.55,9.36,9.36,0,0,0-1.736,5.719,8.686,8.686,0,0,0,1.021,4.6,8.7,8.7,0,0,0,2.859,2.986,18.577,18.577,0,0,0,3.881,1.891q2.1.741,4.138,1.3c1.225.376,2.3.739,3.243,1.1a6.429,6.429,0,0,1,2.2,1.3,2.717,2.717,0,0,1,.792,2.042,3.1,3.1,0,0,1-1.3,2.578,5.982,5.982,0,0,1-3.7,1,7.912,7.912,0,0,1-2.529-.384,4.407,4.407,0,0,1-1.94-1.279,4.694,4.694,0,0,1-1.046-2.373L182,26.863a10.759,10.759,0,0,0,2.553,5.261,12.133,12.133,0,0,0,4.98,3.243,20.132,20.132,0,0,0,6.867,1.1,17.293,17.293,0,0,0,7.508-1.43,10.335,10.335,0,0,0,4.379-3.734l-5.319-14.657Z" transform="translate(-107.886)"/>
  </g>
  <g id="Group_2" data-name="Group 2" transform="translate(0 42.092)">
    <path id="Path_4" data-name="Path 4" d="M12.23,118.461a7.434,7.434,0,0,0,2.753-1.548,6.188,6.188,0,0,0,1.642-2.426,8.833,8.833,0,0,0,.535-3.133,8.559,8.559,0,0,0-.878-3.938,6.242,6.242,0,0,0-2.81-2.712,11.3,11.3,0,0,0-5.139-.993H0v26.757H1.454V119H8.411c.139,0,.266-.008.4-.012l7.128,11.479h1.642l-7.235-11.589a10.544,10.544,0,0,0,1.883-.413ZM1.45,117.7V105H8.333q4.014,0,5.694,1.74a6.359,6.359,0,0,1,1.683,4.608,6.947,6.947,0,0,1-.764,3.288,5.226,5.226,0,0,1-2.369,2.255,9.332,9.332,0,0,1-4.167.8H1.454Z" transform="translate(0 -103.436)"/>
    <path id="Path_5" data-name="Path 5" d="M55.95,130.457H72.809v-1.3H57.4V117.385H68.985v-1.3H57.4V105h15.4v-1.3H55.95Z" transform="translate(-33.095 -103.43)"/>
    <path id="Path_6" data-name="Path 6" d="M112.56,130.457h1.454V117.385H125.6v-1.3H114.014V105h15.4v-1.3H112.56Z" transform="translate(-66.579 -103.43)"/>
    <path id="Path_7" data-name="Path 7" d="M182.637,106.853a12.172,12.172,0,0,0-4.109-2.81,13.227,13.227,0,0,0-5.159-.993,13.432,13.432,0,0,0-5.2.993,12.318,12.318,0,0,0-4.13,2.81,12.571,12.571,0,0,0-2.712,4.318,16.433,16.433,0,0,0,0,11.046,12.533,12.533,0,0,0,2.712,4.318,12.318,12.318,0,0,0,4.13,2.81,13.33,13.33,0,0,0,5.2.993,13.126,13.126,0,0,0,5.159-.993,12.056,12.056,0,0,0,4.109-2.81,12.949,12.949,0,0,0,2.712-4.318,16.11,16.11,0,0,0,0-11.046,13.014,13.014,0,0,0-2.712-4.318Zm.65,16.438a11,11,0,0,1-4.13,4.261,11.381,11.381,0,0,1-5.793,1.491,11.625,11.625,0,0,1-5.85-1.491,10.83,10.83,0,0,1-4.13-4.261,15.034,15.034,0,0,1,0-13.207,10.839,10.839,0,0,1,4.13-4.244,11.549,11.549,0,0,1,5.85-1.491,11.317,11.317,0,0,1,5.793,1.491,11.009,11.009,0,0,1,4.13,4.244,14.856,14.856,0,0,1,0,13.207Z" transform="translate(-94.859 -103.046)"/>
    <path id="Path_8" data-name="Path 8" d="M249.06,118.461a7.434,7.434,0,0,0,2.753-1.548,6.188,6.188,0,0,0,1.642-2.426,8.832,8.832,0,0,0,.535-3.133,8.559,8.559,0,0,0-.878-3.938,6.242,6.242,0,0,0-2.81-2.712,11.3,11.3,0,0,0-5.139-.993H236.83v26.757h1.454V119h6.957c.139,0,.266-.008.4-.012l7.128,11.479h1.642l-7.234-11.589a10.544,10.544,0,0,0,1.883-.413Zm-10.78-.764V105h6.879q4.013,0,5.694,1.74a6.359,6.359,0,0,1,1.683,4.608,6.947,6.947,0,0,1-.764,3.288A5.226,5.226,0,0,1,249.4,116.9a9.332,9.332,0,0,1-4.167.8H238.28Z" transform="translate(-140.085 -103.436)"/>
    <path id="Path_9" data-name="Path 9" d="M305.166,128.467,294.345,103.7H292.78v26.757h1.45V106.833l10.323,23.623h1.185l10.319-23.623v23.623h1.454V103.7h-1.528Z" transform="translate(-173.18 -103.43)"/>
    <path id="Path_10" data-name="Path 10" d="M373.05,103.7l-10.09,26.757h1.454l2.937-7.761h14.563l2.913,7.761h1.491L376.228,103.7h-3.174Zm-5.212,17.7,6.205-16.4h1.221l6.156,16.4Z" transform="translate(-214.691 -103.43)"/>
    <path id="Path_11" data-name="Path 11" d="M442.382,120.34a5.789,5.789,0,0,0-1.74-2.063,11.779,11.779,0,0,0-2.561-1.413,30.866,30.866,0,0,0-3.019-1.05q-1.949-.576-3.574-1.205a6.612,6.612,0,0,1-2.582-1.7,4.266,4.266,0,0,1-.956-2.945,5.02,5.02,0,0,1,.9-3.06,5.767,5.767,0,0,1,2.426-1.932,8.211,8.211,0,0,1,3.325-.67,7.552,7.552,0,0,1,3.325.67,6.555,6.555,0,0,1,2.2,1.642,5.321,5.321,0,0,1,1.091,1.891l1.3-.5a6.881,6.881,0,0,0-1.413-2.426,7.313,7.313,0,0,0-2.6-1.834,10.909,10.909,0,0,0-8.2.192,6.675,6.675,0,0,0-3.84,6.25,5.265,5.265,0,0,0,2.484,4.759,12.334,12.334,0,0,0,2.582,1.262c.956.343,1.957.658,3,.935a25.645,25.645,0,0,1,3.554,1.319,6.826,6.826,0,0,1,2.541,1.932,4.839,4.839,0,0,1,.935,3.1,5.136,5.136,0,0,1-1.7,3.938A7.361,7.361,0,0,1,434.723,129a8.649,8.649,0,0,1-3.938-.764,6.084,6.084,0,0,1-2.275-1.891,7.374,7.374,0,0,1-1.091-2.234l-1.3.535a7.731,7.731,0,0,0,1.471,2.868,7.174,7.174,0,0,0,2.827,2.063,11.059,11.059,0,0,0,4.375.764,10.042,10.042,0,0,0,4.779-.976,6.125,6.125,0,0,0,2.618-2.561,7.413,7.413,0,0,0,.821-3.46,6.572,6.572,0,0,0-.629-3Z" transform="translate(-252.051 -103.04)"/>
  </g>
</svg>
