<svg xmlns="http://www.w3.org/2000/svg" width="559.5" height="776.17" viewBox="0 0 559.5 776.17">
  <path id="Path_72" data-name="Path 72" d="M628.122,354.22c-9.825-4.26-19.737-8.26-30-11.912q-46.691-16.3-91.294-30.431-32.6-10.825-59.819-22.867-27.127-12-42.951-27.214-15.78-15.259-15.737-39.126a57.9,57.9,0,0,1,13.564-38.083q13.563-16.3,35.3-24.954,21.781-8.738,47.821-8.695a131.938,131.938,0,0,1,41.821,7.043,92.122,92.122,0,0,1,36.43,22.258c1.13,1.13,2,2.348,2.956,3.478L499.789.609C492.486.261,485.1,0,477.53,0Q396.018,0,332.939,25.562q-62.993,25.562-99.989,75.556Q196.042,151.069,196,222.844q-1.043,58.689,21.737,97.815A185.169,185.169,0,0,0,278.6,384.216a395.4,395.4,0,0,0,82.6,40.256q44.6,15.781,88.077,27.736c26.084,8,49.038,15.737,69.035,23.389,19.911,7.564,35.474,16.868,46.777,27.736q16.824,16.3,16.867,43.473c0,22.432-9.216,40.778-27.736,54.863q-27.78,21.258-78.773,21.215-29.345,0-53.82-8.173a93.812,93.812,0,0,1-41.3-27.214c-11.216-12.694-18.693-29.562-22.258-50.516L182,571.759q13.042,66.253,54.341,111.987,41.343,45.647,105.988,69.035,64.688,23.345,146.156,23.389,96.772,0,159.808-30.431Q709.982,716,741.5,666.27L628.3,354.307Z" transform="translate(-182)" fill="#fff"/>
</svg>
